<svg version="1.1" id="Layer_1" xmlns="http://www.w3.org/2000/svg" xmlns:xlink="http://www.w3.org/1999/xlink" x="0px" y="0px"
	 width="100%" viewBox="0 0 550 550" enable-background="new 0 0 550 550" xml:space="preserve">
<path fill="#020202" opacity="1.000000" stroke="none" 
	d="
M4.000000,1.000000 
	C186.262741,1.000000 368.525482,1.000000 551.000000,1.000000 
	C551.000000,182.359116 551.000000,363.718323 550.551758,545.545166 
	C547.720764,546.118713 545.338013,546.224670 542.541626,546.229004 
	C540.432129,546.192017 538.736328,546.256531 536.588867,546.176636 
	C527.078064,546.126221 518.018921,546.220215 508.575500,546.212646 
	C507.140808,546.179016 506.090271,546.246948 504.588257,546.170166 
	C494.077820,546.120789 484.018921,546.215942 473.512299,546.208740 
	C469.389008,546.170288 465.713440,546.234192 461.586365,546.153748 
	C447.743225,546.110474 434.351562,546.211548 420.601990,546.209656 
	C419.508881,546.172852 418.773712,546.238953 417.667480,546.160461 
	C416.518158,546.109375 415.739899,546.203003 414.538025,546.193970 
	C412.088409,546.156067 410.062439,546.220825 407.644135,546.142334 
	C406.155609,546.093567 405.059448,546.188171 403.515381,546.180054 
	C399.390045,546.142578 395.712585,546.207764 391.583435,546.129944 
	C382.409729,546.078186 373.687744,546.169434 364.550629,546.160278 
	C362.435028,546.127686 360.734619,546.195557 358.591370,546.122070 
	C354.753540,546.080750 351.358551,546.180664 347.647156,546.183228 
	C346.899200,546.151245 346.467651,546.216553 345.583984,546.140381 
	C337.164734,545.991089 329.197327,545.937195 321.230560,545.985596 
	C306.472107,546.075256 291.714020,546.224792 276.572083,546.249817 
	C275.139954,546.216248 274.091583,546.282349 272.606384,546.207886 
	C269.431488,546.162964 266.693390,546.258545 263.499512,546.253662 
	C249.709885,546.215210 236.376053,546.277161 222.647949,546.198486 
	C221.154587,546.153015 220.055511,546.248169 218.642365,546.245728 
	C217.899796,546.213989 217.471313,546.279724 216.634857,546.203247 
	C214.803467,546.154724 213.380035,546.248474 211.511597,546.241638 
	C207.725510,546.210693 204.384415,546.280334 200.669861,546.208984 
	C199.516006,546.163147 198.735626,546.258362 197.554047,546.253418 
	C195.783157,546.221863 194.413452,546.290466 192.704651,546.221558 
	C191.895432,546.175171 191.425293,546.266357 190.499542,546.256287 
	C177.711349,546.229553 165.378784,546.304138 152.593842,546.236328 
	C140.745560,546.185242 129.349625,546.276611 117.502335,546.266113 
	C112.715324,546.228210 108.379662,546.292297 103.625977,546.213623 
	C101.457191,546.164307 99.706421,546.257690 97.572098,546.250244 
	C96.140015,546.216675 95.091476,546.283875 93.704185,546.213257 
	C92.895638,546.166748 92.425850,546.258057 91.500748,546.247375 
	C84.711235,546.211792 78.377037,546.278198 71.592316,546.201782 
	C66.079651,546.156921 61.017506,546.254944 55.641792,546.254517 
	C54.899998,546.221252 54.471771,546.286438 53.591675,546.208008 
	C46.077755,546.165588 39.015697,546.266724 31.570499,546.267334 
	C30.139959,546.233215 29.092564,546.299683 27.613155,546.225464 
	C24.771902,546.179688 22.362661,546.274719 19.596762,546.269165 
	C18.508556,546.235291 17.777012,546.302002 16.614109,546.224976 
	C13.772406,546.174011 11.362062,546.266663 8.594378,546.257385 
	C7.504210,546.226685 6.771381,546.297974 5.633612,546.111572 
	C4.894557,543.625854 4.268424,541.397827 4.268023,539.169678 
	C4.241519,392.091309 4.282900,245.012955 4.271597,97.934601 
	C4.269114,65.623062 4.095050,33.311535 4.000000,1.000000 
M135.916397,391.131287 
	C139.606262,391.068756 143.296127,391.006226 147.888565,391.225189 
	C156.264984,391.124115 164.641403,391.023041 173.939514,391.091400 
	C193.962540,391.026794 213.985550,390.962189 234.918503,391.134613 
	C243.377045,391.134003 251.836121,391.180420 260.293579,391.084412 
	C261.633820,391.069183 262.966797,390.412201 264.811432,389.572388 
	C264.724945,388.675812 264.638458,387.779205 264.730347,386.302002 
	C264.689056,385.903748 264.647736,385.505493 264.977875,384.226349 
	C264.832794,379.776062 264.687714,375.325745 264.703186,370.195465 
	C264.630615,369.505920 264.558044,368.816376 264.851837,367.236847 
	C264.831696,363.443604 264.808350,359.650330 264.792023,355.857086 
	C264.741028,344.009430 264.741791,344.007111 252.745132,345.203217 
	C252.433044,345.234314 252.139679,345.453003 250.938553,345.407471 
	C234.626541,345.496338 218.314529,345.585205 201.120804,345.341858 
	C193.415100,345.458282 185.709412,345.574738 177.166626,345.372620 
	C175.074600,345.386414 172.982574,345.400208 170.386795,344.531281 
	C170.304276,342.706879 170.149384,340.882446 170.149628,339.058044 
	C170.160721,253.782227 170.192078,168.506393 170.162186,83.230591 
	C170.161560,81.426765 169.472488,79.623184 168.653336,77.482544 
	C168.475922,77.543861 168.298492,77.605171 167.364395,77.312531 
	C158.244644,77.437500 149.124893,77.562462 139.120804,77.360786 
	C133.101822,77.360786 127.082832,77.360786 121.119095,77.360786 
	C121.119095,84.158752 121.119095,90.088608 120.668037,96.692703 
	C120.729736,154.819412 120.788773,212.946136 120.876411,271.072815 
	C120.877846,272.023102 121.228409,272.972900 121.275169,274.727631 
	C121.441368,276.833008 121.607567,278.938385 121.363007,281.886688 
	C121.476967,285.945465 121.590935,290.004211 121.313293,294.871307 
	C121.461952,297.235199 121.610611,299.599121 121.446304,302.813293 
	C121.638550,312.530518 121.830803,322.247711 121.624359,332.821869 
	C121.763809,345.213837 121.903259,357.605835 121.696274,370.803070 
	C121.763435,372.544403 121.830597,374.285736 121.548943,376.855682 
	C121.666046,379.228424 121.783150,381.601135 121.659210,384.815552 
	C121.760994,386.547607 121.862778,388.279663 121.769638,390.512115 
	C122.510544,390.664520 123.251450,390.816925 124.727783,391.186096 
	C125.481552,391.108795 126.235313,391.031494 127.853188,391.204742 
	C130.239700,391.118744 132.626221,391.032745 135.916397,391.131287 
M245.244980,419.191833 
	C242.118042,419.292725 238.991089,419.393616 234.960861,419.331604 
	C221.315994,419.451538 207.671143,419.571503 193.148468,419.348907 
	C179.466324,419.433167 165.784180,419.517426 151.203705,419.258850 
	C145.444473,419.417938 139.685257,419.576996 133.024063,419.654175 
	C129.699417,419.687897 126.374763,419.721619 122.501869,419.399353 
	C121.752983,420.095520 120.347496,420.804321 120.360580,421.485870 
	C120.453201,426.311249 120.836678,431.131042 120.990273,436.704132 
	C121.040901,437.461945 121.091530,438.219757 120.919815,439.820465 
	C120.697853,445.571075 120.365898,451.321075 120.332031,457.072784 
	C120.323677,458.493042 121.284256,459.919006 122.539688,461.760132 
	C134.119217,461.813690 145.698883,461.929962 157.278214,461.901947 
	C167.524689,461.877136 177.770782,461.691650 188.923798,461.824341 
	C205.625443,461.744507 222.327087,461.664703 239.932037,461.826965 
	C250.295685,461.731995 260.659332,461.637024 271.925903,461.797760 
	C295.635071,461.793884 319.344238,461.790009 343.708893,462.250610 
	C362.333954,462.339020 380.958954,462.437531 399.584045,462.512115 
	C410.730225,462.556763 421.876526,462.588104 433.022705,462.568542 
	C435.344116,462.564484 438.003296,462.721527 437.954346,459.212555 
	C437.836273,450.752136 437.659943,442.292511 437.692627,432.949402 
	C437.641357,429.013947 437.590088,425.078522 437.756012,420.524506 
	C437.119873,420.188354 436.483704,419.852173 434.954651,419.319824 
	C429.694122,419.377258 424.433594,419.434692 418.262756,419.159119 
	C412.450317,419.267731 406.637848,419.376343 399.921021,419.361816 
	C370.956146,419.519440 341.991241,419.677063 312.326080,419.414825 
	C299.188568,419.317535 286.050873,419.133209 272.913574,419.157257 
	C265.616821,419.170624 258.320679,419.531769 250.258926,419.408356 
	C248.884277,419.442108 247.509644,419.475891 245.244980,419.191833 
M349.881989,241.428497 
	C349.881989,248.529572 349.881989,255.630646 349.881989,263.166534 
	C361.460449,263.166534 372.601562,263.259491 383.739410,263.109497 
	C387.052582,263.064880 388.370209,263.786499 388.337799,267.526062 
	C388.129883,291.518188 388.087006,315.513550 388.272278,339.505676 
	C388.306702,343.964172 387.256470,345.555878 382.537994,345.499664 
	C363.712555,345.275330 344.882446,345.456390 326.054047,345.453156 
	C324.943420,345.452972 323.832886,345.152649 322.440308,344.951202 
	C322.440308,272.128448 322.440308,199.551270 322.440308,126.579353 
	C344.340851,126.579353 366.044281,126.579353 388.051300,126.579353 
	C388.051300,137.640060 388.189178,148.282516 387.976715,158.917938 
	C387.902039,162.654968 388.653351,164.208633 392.869751,164.124725 
	C406.027222,163.862854 419.195435,163.966934 432.356201,164.156662 
	C435.947937,164.208450 437.232361,163.338867 437.198212,159.427673 
	C436.971161,133.435928 437.024231,107.441765 436.969147,81.448425 
	C436.966766,80.328377 436.797028,79.208679 436.677490,77.750175 
	C434.337402,77.646736 432.201630,77.476662 430.065399,77.470222 
	C416.568848,77.429581 403.072174,77.412628 389.575562,77.411514 
	C361.582733,77.409195 333.588898,77.279602 305.597504,77.481720 
	C289.021515,77.601410 276.839050,86.430481 271.832367,102.187668 
	C270.103180,107.629707 269.466949,113.624054 269.441833,119.370972 
	C269.176147,180.188065 269.138062,241.006165 269.029297,301.823975 
	C269.001892,317.153137 268.994598,332.482574 268.890472,347.811279 
	C268.774750,364.853271 274.782196,378.688812 290.684814,386.286102 
	C296.493042,389.060883 303.395508,390.747955 309.824188,390.825470 
	C350.974701,391.321625 392.132263,391.235626 433.287537,391.312378 
	C434.406311,391.314453 435.525635,390.992218 436.574463,390.831940 
	C436.574463,332.507477 436.574463,274.451263 436.574463,216.354828 
	C435.506042,216.160110 434.864960,215.940918 434.223938,215.941162 
	C407.231842,215.951462 380.239685,216.014984 353.247742,215.962234 
	C350.199036,215.956268 349.677643,217.346283 349.736877,219.952759 
	C349.892151,226.781540 349.850708,233.614792 349.881989,241.428497 
z"/>
<path fill="#C3C5C7" opacity="1.000000" stroke="none" 
	d="
M3.666667,1.000000 
	C4.095050,33.311535 4.269114,65.623062 4.271597,97.934601 
	C4.282900,245.012955 4.241519,392.091309 4.268023,539.169678 
	C4.268424,541.397827 4.894557,543.625854 5.574936,546.402405 
	C4.280800,546.300598 2.640399,545.650269 0.999999,545.000000 
	C1.000000,453.312439 1.000000,361.624878 1.331607,269.426910 
	C1.442142,267.944336 1.221071,266.972168 1.000000,266.000000 
	C1.000000,246.979111 1.000000,227.958206 1.389718,208.384430 
	C3.186358,204.101074 4.609403,200.369476 1.000000,197.000000 
	C1.000000,181.979111 1.000000,166.958206 1.357886,151.406937 
	C3.366592,148.973709 4.024923,147.216553 1.000000,146.000000 
	C1.000000,98.312439 1.000000,50.624878 1.218858,2.359609 
	C1.716774,1.587174 1.904202,1.326540 2.000000,1.000000 
	C2.444444,1.000000 2.888889,1.000000 3.666667,1.000000 
z"/>
<path fill="#DDDEE0" opacity="1.000000" stroke="none" 
	d="
M0.999999,545.499512 
	C2.640399,545.650269 4.280800,546.300598 5.979877,546.660034 
	C6.771381,546.297974 7.504210,546.226685 8.649356,546.584839 
	C11.982702,550.011292 14.528980,548.374146 17.045465,546.368652 
	C17.777012,546.302002 18.508556,546.235291 19.713633,546.614624 
	C22.806498,546.829102 25.425835,546.597656 28.045170,546.366150 
	C29.092564,546.299683 30.139959,546.233215 31.703903,546.630737 
	C39.238811,547.259888 46.256989,547.437927 53.276287,547.537109 
	C53.526409,547.540649 53.787556,546.764465 54.043556,546.351562 
	C54.471771,546.286438 54.899998,546.221252 55.772427,546.618774 
	C61.552021,548.123962 66.899895,549.434509 72.042847,546.344543 
	C78.377037,546.278198 84.711235,546.211792 91.538712,546.509644 
	C92.702309,546.699646 93.372620,546.525330 94.042938,546.350952 
	C95.091476,546.283875 96.140015,546.216675 97.672104,546.582886 
	C100.118439,546.796326 102.081223,546.576355 104.044006,546.356323 
	C108.379662,546.292297 112.715324,546.228210 117.635757,546.629578 
	C118.793884,547.376038 119.365822,547.898804 119.940811,547.902222 
	C130.069824,547.961487 140.199615,547.997986 150.327850,547.897949 
	C151.238892,547.888977 152.140335,546.908142 153.046204,546.378723 
	C165.378784,546.304138 177.711349,546.229553 190.538055,546.517944 
	C191.702698,546.706970 192.373230,546.532959 193.043762,546.359009 
	C194.413452,546.290466 195.783157,546.221863 197.613861,546.549683 
	C199.064346,546.747314 200.053848,546.548645 201.043335,546.349976 
	C204.384415,546.280334 207.725510,546.210693 211.600327,546.566956 
	C213.770325,546.777100 215.406570,546.561279 217.042831,546.345459 
	C217.471313,546.279724 217.899796,546.213989 218.719086,546.556580 
	C220.420685,546.756409 221.731461,546.547852 223.042236,546.339233 
	C236.376053,546.277161 249.709885,546.215210 263.619629,546.606689 
	C267.144775,546.822937 270.093964,546.585693 273.043182,546.348450 
	C274.091583,546.282349 275.139954,546.216248 276.702576,546.615112 
	C278.117554,547.377197 279.017670,547.931580 279.919098,547.933716 
	C300.749573,547.983704 321.580353,548.001892 342.410492,547.902344 
	C343.621582,547.896545 344.827667,546.846191 346.036102,546.281921 
	C346.467651,546.216553 346.899200,546.151245 347.763641,546.549438 
	C351.903229,548.123962 355.620911,549.394287 359.034180,546.263367 
	C360.734619,546.195557 362.435028,546.127686 364.669159,546.533813 
	C365.751434,547.312805 366.297485,547.878418 366.848938,547.883667 
	C374.382721,547.955627 381.918121,548.005005 389.450439,547.888977 
	C390.320099,547.875610 391.173981,546.836487 392.035156,546.272949 
	C395.712585,546.207764 399.390045,546.142578 403.587036,546.497192 
	C405.416565,546.706543 406.726532,546.496094 408.036469,546.285645 
	C410.062439,546.220825 412.088409,546.156067 414.593567,546.495728 
	C416.061340,546.701904 417.049927,546.503479 418.038513,546.305115 
	C418.773712,546.238953 419.508881,546.172852 420.727112,546.578613 
	C421.777466,547.344299 422.343536,547.891724 422.912354,547.894531 
	C435.067230,547.955444 447.222717,547.990356 459.376984,547.895020 
	C460.268066,547.888123 461.151062,546.854431 462.037842,546.298096 
	C465.713440,546.234192 469.389008,546.170288 473.637024,546.578064 
	C474.776031,547.344116 475.340759,547.890625 475.909515,547.894958 
	C484.729065,547.961304 493.549713,548.005005 502.368195,547.897217 
	C503.265045,547.886230 504.149536,546.866455 505.039764,546.314819 
	C506.090271,546.246948 507.140808,546.179016 508.700928,546.581421 
	C509.777466,547.345093 510.342194,547.888977 510.911591,547.893921 
	C518.728821,547.961853 526.547546,548.008728 534.363464,547.894592 
	C535.263306,547.881470 536.148499,546.869751 537.040527,546.321045 
	C538.736328,546.256531 540.432129,546.192017 542.611816,546.587891 
	C545.730408,547.698853 548.365234,548.349426 551.000000,549.000000 
	C550.834106,549.666687 550.771790,550.850891 550.483948,550.908508 
	C549.363220,551.132935 548.171021,551.000000 547.005371,551.000000 
	C365.003571,551.000000 183.001785,551.000000 1.000000,550.997253 
	C1.000000,549.329346 1.000000,547.664124 0.999999,545.499512 
z"/>
<path fill="#C3C5C7" opacity="1.000000" stroke="none" 
	d="
M551.000000,548.625000 
	C548.365234,548.349426 545.730408,547.698853 543.025452,546.689453 
	C545.338013,546.224670 547.720764,546.118713 550.551758,546.006348 
	C551.000000,546.750000 551.000000,547.500000 551.000000,548.625000 
z"/>
<path fill="#DDDEE0" opacity="1.000000" stroke="none" 
	d="
M1.000000,197.458069 
	C4.609403,200.369476 3.186358,204.101074 1.389718,207.915771 
	C1.000000,204.638718 1.000000,201.277420 1.000000,197.458069 
z"/>
<path fill="#DDDEE0" opacity="1.000000" stroke="none" 
	d="
M1.000000,146.416656 
	C4.024923,147.216553 3.366592,148.973709 1.357886,150.938278 
	C1.000000,149.611115 1.000000,148.222214 1.000000,146.416656 
z"/>
<path fill="#DDDEE0" opacity="1.000000" stroke="none" 
	d="
M1.000000,266.375000 
	C1.221071,266.972168 1.442142,267.944336 1.331607,268.958252 
	C1.000000,268.250000 1.000000,267.500000 1.000000,266.375000 
z"/>
<path fill="#DDDEE0" opacity="1.000000" stroke="none" 
	d="
M1.500000,1.000000 
	C1.904202,1.326540 1.716774,1.587174 1.218858,1.890952 
	C1.000000,1.666667 1.000000,1.333333 1.500000,1.000000 
z"/>
<path fill="#F6F6F6" opacity="1.000000" stroke="none" 
	d="
M349.884827,240.937378 
	C349.850708,233.614792 349.892151,226.781540 349.736877,219.952759 
	C349.677643,217.346283 350.199036,215.956268 353.247742,215.962234 
	C380.239685,216.014984 407.231842,215.951462 434.223938,215.941162 
	C434.864960,215.940918 435.506042,216.160110 436.574463,216.354828 
	C436.574463,274.451263 436.574463,332.507477 436.574463,390.831940 
	C435.525635,390.992218 434.406311,391.314453 433.287537,391.312378 
	C392.132263,391.235626 350.974701,391.321625 309.824188,390.825470 
	C303.395508,390.747955 296.493042,389.060883 290.684814,386.286102 
	C274.782196,378.688812 268.774750,364.853271 268.890472,347.811279 
	C268.994598,332.482574 269.001892,317.153137 269.029297,301.823975 
	C269.138062,241.006165 269.176147,180.188065 269.441833,119.370972 
	C269.466949,113.624054 270.103180,107.629707 271.832367,102.187668 
	C276.839050,86.430481 289.021515,77.601410 305.597504,77.481720 
	C333.588898,77.279602 361.582733,77.409195 389.575562,77.411514 
	C403.072174,77.412628 416.568848,77.429581 430.065399,77.470222 
	C432.201630,77.476662 434.337402,77.646736 436.677490,77.750175 
	C436.797028,79.208679 436.966766,80.328377 436.969147,81.448425 
	C437.024231,107.441765 436.971161,133.435928 437.198212,159.427673 
	C437.232361,163.338867 435.947937,164.208450 432.356201,164.156662 
	C419.195435,163.966934 406.027222,163.862854 392.869751,164.124725 
	C388.653351,164.208633 387.902039,162.654968 387.976715,158.917938 
	C388.189178,148.282516 388.051300,137.640060 388.051300,126.579353 
	C366.044281,126.579353 344.340851,126.579353 322.440308,126.579353 
	C322.440308,199.551270 322.440308,272.128448 322.440308,344.951202 
	C323.832886,345.152649 324.943420,345.452972 326.054047,345.453156 
	C344.882446,345.456390 363.712555,345.275330 382.537994,345.499664 
	C387.256470,345.555878 388.306702,343.964172 388.272278,339.505676 
	C388.087006,315.513550 388.129883,291.518188 388.337799,267.526062 
	C388.370209,263.786499 387.052582,263.064880 383.739410,263.109497 
	C372.601562,263.259491 361.460449,263.166534 349.881989,263.166534 
	C349.881989,255.630646 349.881989,248.529572 349.884827,240.937378 
z"/>
<path fill="#F8F8F8" opacity="1.000000" stroke="none" 
	d="
M140.005142,77.687424 
	C149.124893,77.562462 158.244644,77.437500 167.775543,77.742599 
	C168.391617,78.437462 168.596573,78.702255 168.841766,79.435928 
	C168.892502,83.401329 168.913452,86.897850 168.911896,90.394356 
	C168.895508,127.104645 168.880875,163.814926 168.855026,200.525223 
	C168.827469,239.653183 168.788345,278.781158 168.392563,317.823242 
	C167.681793,314.828888 167.332748,311.920380 166.988556,308.542542 
	C166.662125,295.827179 166.246582,283.582703 166.026962,271.334747 
	C165.860580,262.055939 157.891983,257.144043 149.179245,261.857147 
	C148.757004,259.826263 148.092484,257.999695 148.060272,256.162048 
	C148.008728,253.221313 146.830307,251.883759 143.861481,251.983063 
	C141.257278,252.070160 138.588608,252.134842 139.561447,248.055573 
	C139.674271,247.582474 138.488907,246.551071 137.713135,246.157379 
	C134.179886,244.364395 130.577881,242.706848 126.998619,240.597641 
	C126.997269,229.505112 126.998260,218.815567 126.998474,208.126007 
	C126.999062,178.719238 126.999260,149.312454 126.999718,119.905685 
	C126.999886,109.242630 127.009575,98.579567 126.996094,87.916534 
	C126.990860,83.769806 127.999840,80.935585 133.121262,80.782753 
	C135.444611,80.713432 137.712234,78.776917 140.005142,77.687424 
z"/>
<path fill="#E6E6E6" opacity="1.000000" stroke="none" 
	d="
M178.003708,345.691193 
	C185.709412,345.574738 193.415100,345.458282 201.550903,345.852905 
	C201.052216,351.432648 196.947403,350.052917 193.733215,350.360596 
	C192.034225,350.523254 190.306839,350.389404 188.592270,350.389404 
	C188.597092,350.842133 188.601929,351.294861 188.606750,351.747589 
	C191.185074,352.078003 193.864609,353.021484 196.321442,352.615936 
	C202.083496,351.664703 206.322449,354.133118 209.902191,357.953491 
	C217.335693,365.886688 223.067612,375.519165 233.127197,380.806854 
	C233.842316,381.182739 234.190674,382.256409 235.440170,384.060455 
	C221.616776,384.385834 208.804108,384.687439 195.988708,384.621155 
	C194.070374,381.671417 192.357544,378.902985 190.193069,376.549988 
	C186.677856,372.728577 183.275131,368.603577 179.093567,365.637909 
	C171.002823,359.899689 165.030594,352.611420 160.399185,343.994690 
	C159.762650,342.810394 158.510193,341.383026 157.337692,341.163361 
	C152.972000,340.345398 149.070328,339.411652 147.432755,334.410156 
	C147.066223,333.290741 144.758820,332.752655 143.288757,332.067535 
	C142.288513,331.601379 140.797379,331.666779 140.203018,330.940308 
	C137.383057,327.493835 134.920486,323.753082 132.072327,320.332245 
	C130.669113,318.646881 128.706055,317.427704 126.994987,315.531738 
	C126.996735,310.377686 126.999840,305.689453 127.348694,301.039429 
	C128.272980,301.380737 129.050201,301.536530 129.400284,302.008881 
	C134.844528,309.354584 141.973526,314.232635 150.691956,316.914795 
	C151.781082,317.249878 152.673248,318.225159 152.761322,318.285950 
	C151.454269,320.224060 149.351593,322.024719 149.665756,323.151489 
	C150.311661,325.467957 157.157867,326.501160 158.765182,324.572449 
	C161.336182,321.487457 164.192719,320.642670 167.885437,322.437683 
	C167.955826,325.584778 167.991364,328.283203 167.737732,331.264191 
	C167.305222,336.923279 166.777725,342.332245 167.228104,347.658539 
	C167.384537,349.508484 169.843460,352.483398 171.458298,352.628113 
	C175.371124,352.978668 179.405960,351.967407 182.591980,351.597778 
	C181.054260,349.618225 179.528976,347.654724 178.003708,345.691193 
z"/>
<path fill="#81AE46" opacity="1.000000" stroke="none" 
	d="
M271.023010,461.542053 
	C260.659332,461.637024 250.295685,461.731995 239.445221,461.331024 
	C237.320465,460.223267 235.666550,459.650543 234.048325,458.990417 
	C231.684647,458.026123 229.346558,456.999084 227.456482,455.999390 
	C231.445038,455.999939 234.974670,455.999939 238.504303,455.999939 
	C234.002792,450.819550 233.465515,445.965149 234.756012,440.082886 
	C235.610764,436.186737 236.408722,431.411652 231.488205,428.572327 
	C230.598846,428.059143 230.472900,426.222961 230.295349,424.709045 
	C236.062927,424.281189 241.529633,424.141815 247.298126,424.290619 
	C256.063751,424.718719 264.527588,424.858673 273.142456,425.218323 
	C273.865204,425.292053 274.436920,425.146027 275.424072,424.999756 
	C277.224274,424.998047 278.609100,424.996582 280.331940,424.993652 
	C281.452576,424.664276 282.235138,424.336456 283.476868,424.007202 
	C287.616302,424.009796 291.296539,424.013824 294.983459,424.402954 
	C294.183197,428.732544 294.527832,433.553101 292.331238,436.440308 
	C287.668701,442.568909 287.879883,449.152191 287.531982,455.998810 
	C281.570190,455.998840 276.076447,455.998840 270.468903,455.998840 
	C270.703369,458.344360 270.863190,459.943237 271.023010,461.542053 
z"/>
<path fill="#EEEEEE" opacity="1.000000" stroke="none" 
	d="
M195.991440,384.989014 
	C208.804108,384.687439 221.616776,384.385834 235.440170,384.060455 
	C234.190674,382.256409 233.842316,381.182739 233.127197,380.806854 
	C223.067612,375.519165 217.335693,365.886688 209.902191,357.953491 
	C206.322449,354.133118 202.083496,351.664703 196.321442,352.615936 
	C193.864609,353.021484 191.185074,352.078003 188.606750,351.747589 
	C188.601929,351.294861 188.597092,350.842133 188.592270,350.389404 
	C190.306839,350.389404 192.034225,350.523254 193.733215,350.360596 
	C196.947403,350.052917 201.052216,351.432648 201.991760,346.019012 
	C218.314529,345.585205 234.626541,345.496338 251.333374,345.751495 
	C251.802567,346.435638 251.876923,346.775726 251.790405,347.453186 
	C249.959610,348.526947 248.304291,349.858582 246.617264,349.899994 
	C237.872772,350.114655 229.120087,349.980804 220.370499,350.020996 
	C219.098679,350.026825 217.828125,350.315948 216.556992,350.473999 
	C216.580734,351.005066 216.604477,351.536163 216.628220,352.067230 
	C223.139282,352.361603 229.648560,352.708771 236.162109,352.930603 
	C240.083405,353.064117 244.018539,352.867981 247.933716,353.077148 
	C250.438416,353.210999 251.216827,354.442780 250.400299,357.168823 
	C249.852814,358.996704 249.931183,361.655273 250.921722,363.154449 
	C252.532166,365.591766 255.143387,366.688171 258.321655,364.950592 
	C259.683472,364.206024 261.507355,364.306549 263.147705,364.364197 
	C263.611206,365.845856 264.048340,366.986328 264.485474,368.126831 
	C264.558044,368.816376 264.630615,369.505920 264.229156,370.624023 
	C262.883850,375.807465 261.288635,380.606140 264.606445,385.107239 
	C264.647736,385.505493 264.689056,385.903748 264.350464,386.683960 
	C264.081451,388.061249 264.192291,389.056610 264.303131,390.051941 
	C262.966797,390.412201 261.633820,391.069183 260.293579,391.084412 
	C251.836121,391.180420 243.377045,391.134003 234.450012,390.608704 
	C232.887024,389.389191 231.823624,388.153076 230.693100,388.088257 
	C222.116364,387.596619 213.524063,387.384735 204.941742,386.977936 
	C200.992111,386.790741 197.053955,386.361603 193.110611,386.042175 
	C193.129440,385.691101 193.148285,385.340057 193.167114,384.989014 
	C194.108566,384.989014 195.050003,384.989014 195.991440,384.989014 
z"/>
<path fill="#DFDFE0" opacity="1.000000" stroke="none" 
	d="
M195.988708,384.621155 
	C195.050003,384.989014 194.108566,384.989014 193.167114,384.989014 
	C193.148285,385.340057 193.129440,385.691101 193.110611,386.042175 
	C197.053955,386.361603 200.992111,386.790741 204.941742,386.977936 
	C213.524063,387.384735 222.116364,387.596619 230.693100,388.088257 
	C231.823624,388.153076 232.887024,389.389191 233.995041,390.490204 
	C213.985550,390.962189 193.962540,391.026794 173.416534,390.626190 
	C170.729675,389.460663 168.575500,388.728333 166.399216,388.069092 
	C164.252075,387.418701 162.082535,386.842255 159.949966,385.923828 
	C159.985352,385.409149 159.993591,385.203949 160.400803,384.997986 
	C161.863708,384.996887 162.927643,384.996643 164.288574,385.285126 
	C170.807678,386.025665 177.029770,386.477417 183.251862,386.929169 
	C183.257782,386.282043 183.263702,385.634918 183.269623,384.987793 
	C180.177109,384.987793 177.084579,384.987793 173.988892,384.620758 
	C171.684692,381.885193 169.753387,378.878510 167.003250,377.285187 
	C161.786514,374.262848 156.337112,372.229492 154.644577,365.206848 
	C153.943527,362.298126 150.394394,360.056732 148.085266,357.562988 
	C146.997955,356.388763 145.823776,355.284821 144.611618,354.238647 
	C142.559265,352.467468 140.467056,350.740509 138.350235,349.046661 
	C136.887726,347.876343 135.430939,346.668823 133.836243,345.700989 
	C131.622971,344.357727 129.282791,343.223633 126.743805,341.746552 
	C126.331642,337.328339 126.172630,333.163544 126.065292,328.587952 
	C126.410088,324.117249 126.703209,320.057404 126.996338,315.997559 
	C128.706055,317.427704 130.669113,318.646881 132.072327,320.332245 
	C134.920486,323.753082 137.383057,327.493835 140.203018,330.940308 
	C140.797379,331.666779 142.288513,331.601379 143.288757,332.067535 
	C144.758820,332.752655 147.066223,333.290741 147.432755,334.410156 
	C149.070328,339.411652 152.972000,340.345398 157.337692,341.163361 
	C158.510193,341.383026 159.762650,342.810394 160.399185,343.994690 
	C165.030594,352.611420 171.002823,359.899689 179.093567,365.637909 
	C183.275131,368.603577 186.677856,372.728577 190.193069,376.549988 
	C192.357544,378.902985 194.070374,381.671417 195.988708,384.621155 
z"/>
<path fill="#64A346" opacity="1.000000" stroke="none" 
	d="
M121.142159,438.977570 
	C121.091530,438.219757 121.040901,437.461945 121.328537,436.030396 
	C121.788795,431.901459 121.910797,428.446289 122.381279,425.031342 
	C124.725685,424.849182 126.724388,424.414856 128.717056,424.441010 
	C137.477921,424.555969 146.237061,424.803925 155.042816,425.362213 
	C164.365112,433.780212 166.915894,445.595795 171.529633,455.998169 
	C157.794662,455.999329 144.528137,455.973938 131.261887,456.020752 
	C128.360291,456.031006 125.766129,455.870544 126.003601,451.964081 
	C126.187393,448.940826 124.169624,448.930786 122.044495,448.609192 
	C122.439087,446.848877 122.716812,445.425140 123.288628,444.131317 
	C124.416039,441.580444 124.304649,439.679260 121.142159,438.977570 
z"/>
<path fill="#FDFDFD" opacity="1.000000" stroke="none" 
	d="
M139.562973,77.524109 
	C137.712234,78.776917 135.444611,80.713432 133.121262,80.782753 
	C127.999840,80.935585 126.990860,83.769806 126.996094,87.916534 
	C127.009575,98.579567 126.999886,109.242630 126.999718,119.905685 
	C126.999260,149.312454 126.999062,178.719238 126.998474,208.126007 
	C126.998260,218.815567 126.997269,229.505112 126.998634,241.057861 
	C126.991959,252.609421 126.983269,263.297791 126.585579,274.003906 
	C125.463020,275.049255 124.677139,276.044159 124.009438,277.112885 
	C123.211418,278.390198 122.514488,279.730652 121.773773,281.043762 
	C121.607567,278.938385 121.441368,276.833008 121.641563,274.033844 
	C122.081375,272.682037 122.219536,272.023956 122.218971,271.365997 
	C122.170174,214.308304 122.117241,157.250595 122.013084,100.192978 
	C122.010544,98.800934 121.430031,97.409943 121.119095,96.018463 
	C121.119095,90.088608 121.119095,84.158752 121.119095,77.360786 
	C127.082832,77.360786 133.101822,77.360786 139.562973,77.524109 
z"/>
<path fill="#9FBD54" opacity="1.000000" stroke="none" 
	d="
M313.026367,419.834717 
	C341.991241,419.677063 370.956146,419.519440 400.518188,419.788666 
	C406.081696,420.494843 411.046051,420.871307 416.016083,420.974762 
	C417.057648,420.996399 418.120178,420.012573 419.173065,419.492126 
	C424.433594,419.434692 429.694122,419.377258 435.477325,419.654358 
	C436.512939,420.373596 437.025879,420.758331 437.538818,421.143066 
	C437.590088,425.078522 437.641357,429.013947 437.373840,433.416748 
	C436.767181,433.988068 436.471313,434.058472 435.745972,434.062378 
	C432.506134,434.189514 431.293304,433.022400 430.800598,430.065247 
	C430.496399,428.239746 428.758789,425.512939 427.278473,425.232971 
	C422.441772,424.318329 417.425995,424.043274 412.482605,424.074738 
	C405.706085,424.117828 398.933441,424.909363 392.157928,424.926910 
	C386.104492,424.942596 380.049500,424.343292 373.526825,424.012207 
	C355.369202,424.014557 337.679962,424.020081 319.541199,424.020691 
	C316.393219,424.010895 313.694794,424.006042 310.997681,423.667877 
	C310.999390,422.890106 310.999695,422.445648 311.332855,421.948303 
	C312.119263,421.208466 312.572815,420.521606 313.026367,419.834717 
z"/>
<path fill="#B6B6B6" opacity="1.000000" stroke="none" 
	d="
M168.026901,330.981598 
	C167.991364,328.283203 167.955826,325.584778 167.924561,322.087219 
	C168.203995,320.161713 168.479141,319.035431 168.754272,317.909119 
	C168.788345,278.781158 168.827469,239.653183 168.855026,200.525223 
	C168.880875,163.814926 168.895508,127.104645 168.911896,90.394356 
	C168.913452,86.897850 168.892502,83.401329 168.906723,79.146301 
	C168.989166,78.198357 169.046875,78.008919 169.104568,77.819489 
	C169.472488,79.623184 170.161560,81.426765 170.162186,83.230591 
	C170.192078,168.506393 170.160721,253.782227 170.149628,339.058044 
	C170.149384,340.882446 170.304276,342.706879 170.396667,345.185730 
	C169.741699,344.093933 168.722214,342.393402 168.490250,340.591461 
	C168.082108,337.420837 168.155273,334.188232 168.026901,330.981598 
z"/>
<path fill="#8DB250" opacity="1.000000" stroke="none" 
	d="
M271.474457,461.669922 
	C270.863190,459.943237 270.703369,458.344360 270.468903,455.998840 
	C276.076447,455.998840 281.570190,455.998840 288.000641,455.999329 
	C306.290741,455.999878 323.644135,455.999939 341.081238,456.375000 
	C345.174744,457.500031 349.205902,458.154846 353.184296,459.045471 
	C354.847198,459.417725 356.397949,460.290863 357.535156,460.955261 
	C352.398224,461.244843 347.725800,461.515503 343.053406,461.786133 
	C319.344238,461.790009 295.635071,461.793884 271.474457,461.669922 
z"/>
<path fill="#67A34E" opacity="1.000000" stroke="none" 
	d="
M122.060577,449.004517 
	C124.169624,448.930786 126.187393,448.940826 126.003601,451.964081 
	C125.766129,455.870544 128.360291,456.031006 131.261887,456.020752 
	C144.528137,455.973938 157.794662,455.999329 171.993011,455.999054 
	C176.950378,456.000336 180.975800,456.001404 185.040314,456.343384 
	C186.058624,458.315247 187.037827,459.946198 188.017044,461.577118 
	C177.770782,461.691650 167.524689,461.877136 157.278214,461.901947 
	C145.698883,461.929962 134.119217,461.813690 122.230194,461.063873 
	C121.967316,456.579926 122.013947,452.792206 122.060577,449.004517 
z"/>
<path fill="#B6B6B6" opacity="1.000000" stroke="none" 
	d="
M120.893570,96.355583 
	C121.430031,97.409943 122.010544,98.800934 122.013084,100.192978 
	C122.117241,157.250595 122.170174,214.308304 122.218971,271.365997 
	C122.219536,272.023956 122.081375,272.682037 121.712006,273.631470 
	C121.228409,272.972900 120.877846,272.023102 120.876411,271.072815 
	C120.788773,212.946136 120.729736,154.819412 120.893570,96.355583 
z"/>
<path fill="#70A551" opacity="1.000000" stroke="none" 
	d="
M154.996826,425.003662 
	C146.237061,424.803925 137.477921,424.555969 128.717056,424.441010 
	C126.724388,424.414856 124.725685,424.849182 122.367813,424.644775 
	C122.353943,422.730408 122.702034,421.242889 123.050117,419.755341 
	C126.374763,419.721619 129.699417,419.687897 133.748444,420.031281 
	C137.583771,420.628571 140.705521,421.115448 143.802414,420.989746 
	C146.583160,420.876892 149.336563,420.090790 152.102036,419.601685 
	C165.784180,419.517426 179.466324,419.433167 193.564453,419.828796 
	C192.982681,421.538696 191.984940,422.768738 190.543518,423.998718 
	C187.726395,424.005188 185.352921,424.011749 182.539612,424.013977 
	C178.400299,424.013855 174.700806,424.018097 170.973907,423.705353 
	C170.366638,422.816620 169.786804,422.244843 169.206970,421.673096 
	C168.799957,422.450775 168.392929,423.228455 167.608032,424.173218 
	C163.152390,424.561462 159.074600,424.782562 154.996826,425.003662 
z"/>
<path fill="#8BA94F" opacity="1.000000" stroke="none" 
	d="
M312.676208,419.624756 
	C312.572815,420.521606 312.119263,421.208466 310.870331,421.946564 
	C307.633728,421.998260 305.158966,421.754333 302.762909,422.083557 
	C301.115173,422.309937 299.576691,423.331421 297.613098,423.997253 
	C296.483490,424.003937 295.730133,424.010895 294.976807,424.017853 
	C291.296539,424.013824 287.616302,424.009796 283.413269,423.666504 
	C280.286774,421.038269 280.072937,422.899658 279.993896,424.995117 
	C278.609100,424.996582 277.224274,424.998047 275.273193,424.779785 
	C274.135101,424.706238 273.563263,424.852386 272.991425,424.998596 
	C264.527588,424.858673 256.063751,424.718719 247.505630,424.036682 
	C248.615662,422.241760 249.819962,420.988953 251.024261,419.736145 
	C258.320679,419.531769 265.616821,419.170624 272.913574,419.157257 
	C286.050873,419.133209 299.188568,419.317535 312.676208,419.624756 
z"/>
<path fill="#82AC54" opacity="1.000000" stroke="none" 
	d="
M250.641602,419.572266 
	C249.819962,420.988953 248.615662,422.241760 247.203857,423.748505 
	C241.529633,424.141815 236.062927,424.281189 229.846191,424.709656 
	C226.399063,424.998352 223.701965,424.997955 220.788452,424.743408 
	C219.379745,424.658051 218.187424,424.826843 216.550217,424.996307 
	C207.732605,424.664215 199.359894,424.331482 190.987183,423.998779 
	C191.984940,422.768738 192.982681,421.538696 194.003357,420.000061 
	C207.671143,419.571503 221.315994,419.451538 235.555878,419.761383 
	C239.478928,419.963989 242.806961,419.736816 246.134995,419.509644 
	C247.509644,419.475891 248.884277,419.442108 250.641602,419.572266 
z"/>
<path fill="#75A84E" opacity="1.000000" stroke="none" 
	d="
M188.470428,461.700745 
	C187.037827,459.946198 186.058624,458.315247 185.507782,456.343353 
	C191.290573,456.001587 196.644974,456.000793 202.468079,456.000000 
	C210.957031,455.999573 218.977295,455.999176 226.997559,455.998779 
	C229.346558,456.999084 231.684647,458.026123 234.048325,458.990417 
	C235.666550,459.650543 237.320465,460.223267 238.993576,461.209961 
	C222.327087,461.664703 205.625443,461.744507 188.470428,461.700745 
z"/>
<path fill="#6C8E3F" opacity="1.000000" stroke="none" 
	d="
M343.381165,462.018372 
	C347.725800,461.515503 352.398224,461.244843 358.003815,460.974915 
	C380.963196,460.962006 402.989380,460.948425 425.475769,460.958191 
	C436.146515,461.089600 436.146606,461.089600 436.061646,450.972870 
	C436.058899,450.643799 436.049835,450.314819 436.053345,449.519958 
	C436.097839,444.067871 436.132660,439.081604 436.167450,434.095337 
	C436.471313,434.058472 436.767181,433.988068 437.281067,433.858337 
	C437.659943,442.292511 437.836273,450.752136 437.954346,459.212555 
	C438.003296,462.721527 435.344116,462.564484 433.022705,462.568542 
	C421.876526,462.588104 410.730225,462.556763 399.584045,462.512115 
	C380.958954,462.437531 362.333954,462.339020 343.381165,462.018372 
z"/>
<path fill="#E8E9E8" opacity="1.000000" stroke="none" 
	d="
M126.013611,328.998779 
	C126.172630,333.163544 126.331642,337.328339 126.744102,342.215210 
	C126.992310,351.951935 126.987068,360.966583 126.570198,369.985992 
	C124.786613,369.993134 123.414665,369.995453 122.042717,369.997803 
	C121.903259,357.605835 121.763809,345.213837 122.053238,332.208740 
	C123.659279,330.729980 124.836441,329.864380 126.013611,328.998779 
z"/>
<path fill="#F0F1F1" opacity="1.000000" stroke="none" 
	d="
M126.065277,328.587952 
	C124.836441,329.864380 123.659279,330.729980 122.252579,331.780273 
	C121.830803,322.247711 121.638550,312.530518 122.004807,302.408569 
	C123.693466,301.013947 124.823608,300.024048 126.210358,299.020264 
	C126.638145,298.999390 126.809326,298.992371 126.987259,299.321472 
	C126.996986,300.105499 126.999962,300.553345 127.002945,301.001221 
	C126.999840,305.689453 126.996735,310.377686 126.994980,315.531738 
	C126.703209,320.057404 126.410088,324.117249 126.065277,328.587952 
z"/>
<path fill="#C3C5C7" opacity="1.000000" stroke="none" 
	d="
M345.583984,546.140381 
	C344.827667,546.846191 343.621582,547.896545 342.410492,547.902344 
	C321.580353,548.001892 300.749573,547.983704 279.919098,547.933716 
	C279.017670,547.931580 278.117554,547.377197 277.086304,546.714783 
	C291.714020,546.224792 306.472107,546.075256 321.230560,545.985596 
	C329.197327,545.937195 337.164734,545.991089 345.583984,546.140381 
z"/>
<path fill="#EDEEED" opacity="1.000000" stroke="none" 
	d="
M167.737732,331.264191 
	C168.155273,334.188232 168.082108,337.420837 168.490250,340.591461 
	C168.722214,342.393402 169.741699,344.093933 170.648529,345.627075 
	C172.982574,345.400208 175.074600,345.386414 177.585175,345.531921 
	C179.528976,347.654724 181.054260,349.618225 182.591980,351.597778 
	C179.405960,351.967407 175.371124,352.978668 171.458298,352.628113 
	C169.843460,352.483398 167.384537,349.508484 167.228104,347.658539 
	C166.777725,342.332245 167.305222,336.923279 167.737732,331.264191 
z"/>
<path fill="#F8F8F8" opacity="1.000000" stroke="none" 
	d="
M126.980515,298.985352 
	C126.809326,298.992371 126.638145,298.999390 125.848816,298.940033 
	C124.055405,297.270111 122.880150,295.666565 121.704895,294.062988 
	C121.590935,290.004211 121.476967,285.945465 121.568390,281.465210 
	C122.514488,279.730652 123.211418,278.390198 124.009438,277.112885 
	C124.677139,276.044159 125.463020,275.049255 126.593582,274.339722 
	C126.993828,275.105164 126.997063,275.552582 126.999847,276.468628 
	C126.993095,284.286621 126.986801,291.635986 126.980515,298.985352 
z"/>
<path fill="#DFDFE0" opacity="1.000000" stroke="none" 
	d="
M121.869492,370.400452 
	C123.414665,369.995453 124.786613,369.993134 126.576538,370.435730 
	C126.796349,373.344910 126.809135,375.848541 126.357483,378.265381 
	C125.314285,383.847748 126.063477,384.840118 132.011536,385.297241 
	C132.030914,385.786194 132.043030,385.981567 131.776917,386.425079 
	C129.001877,387.053497 126.285316,387.202362 126.989082,390.954193 
	C126.235313,391.031494 125.481552,391.108795 124.201996,390.816772 
	C123.105667,390.302216 122.535118,390.156952 121.964554,390.011719 
	C121.862778,388.279663 121.760994,386.547607 122.163834,384.331879 
	C124.492287,381.036133 125.274261,378.326721 121.897766,376.027069 
	C121.830597,374.285736 121.763435,372.544403 121.869492,370.400452 
z"/>
<path fill="#BBBBBB" opacity="1.000000" stroke="none" 
	d="
M159.922821,386.233368 
	C162.082535,386.842255 164.252075,387.418701 166.399216,388.069092 
	C168.575500,388.728333 170.729675,389.460663 172.955688,390.541473 
	C164.641403,391.023041 156.264984,391.124115 147.438339,390.746735 
	C147.351700,389.220917 147.715271,388.173584 148.464996,387.109680 
	C149.886810,387.081757 150.922470,387.070404 152.335434,387.062073 
	C153.465744,387.070984 154.218750,387.076843 155.156265,387.300354 
	C155.956985,387.051544 156.573227,386.585114 157.532379,386.125427 
	C158.557816,386.165894 159.240311,386.199615 159.922821,386.233368 
z"/>
<path fill="#C3C5C7" opacity="1.000000" stroke="none" 
	d="
M461.586365,546.153748 
	C461.151062,546.854431 460.268066,547.888123 459.376984,547.895020 
	C447.222717,547.990356 435.067230,547.955444 422.912354,547.894531 
	C422.343536,547.891724 421.777466,547.344299 421.085022,546.681519 
	C434.351562,546.211548 447.743225,546.110474 461.586365,546.153748 
z"/>
<path fill="#DFDFE0" opacity="1.000000" stroke="none" 
	d="
M148.078857,387.126221 
	C147.715271,388.173584 147.351700,389.220917 146.987061,390.605988 
	C143.296127,391.006226 139.606262,391.068756 135.463120,390.687317 
	C134.651154,388.897278 134.292465,387.551178 133.956848,385.902985 
	C133.986618,385.400604 133.993301,385.200287 134.464203,384.999146 
	C138.055206,384.998962 141.202057,384.794617 144.299393,385.097168 
	C145.612747,385.225433 146.822189,386.417572 148.078857,387.126221 
z"/>
<path fill="#C3C5C7" opacity="1.000000" stroke="none" 
	d="
M152.593857,546.236328 
	C152.140335,546.908142 151.238892,547.888977 150.327850,547.897949 
	C140.199615,547.997986 130.069824,547.961487 119.940811,547.902222 
	C119.365822,547.898804 118.793884,547.376038 118.087112,546.731445 
	C129.349625,546.276611 140.745560,546.185242 152.593857,546.236328 
z"/>
<path fill="#B6B6B6" opacity="1.000000" stroke="none" 
	d="
M251.951279,347.115845 
	C251.876923,346.775726 251.802567,346.435638 251.782898,345.839844 
	C252.139679,345.453003 252.433044,345.234314 252.745132,345.203217 
	C264.741791,344.007111 264.741028,344.009430 264.792023,355.857086 
	C264.808350,359.650330 264.831696,363.443604 264.668640,367.681824 
	C264.048340,366.986328 263.611206,365.845856 263.160858,363.893738 
	C263.147614,357.864838 263.147614,352.647522 263.147614,347.115845 
	C258.851593,347.115845 255.401428,347.115845 251.951279,347.115845 
z"/>
<path fill="#C3C5C7" opacity="1.000000" stroke="none" 
	d="
M504.588257,546.170166 
	C504.149536,546.866455 503.265045,547.886230 502.368195,547.897217 
	C493.549713,548.005005 484.729065,547.961304 475.909515,547.894958 
	C475.340759,547.890625 474.776031,547.344116 474.084717,546.680481 
	C484.018921,546.215942 494.077820,546.120789 504.588257,546.170166 
z"/>
<path fill="#C3C5C7" opacity="1.000000" stroke="none" 
	d="
M536.588867,546.176636 
	C536.148499,546.869751 535.263306,547.881470 534.363464,547.894592 
	C526.547546,548.008728 518.728821,547.961853 510.911591,547.893921 
	C510.342194,547.888977 509.777466,547.345093 509.085144,546.682983 
	C518.018921,546.220215 527.078064,546.126221 536.588867,546.176636 
z"/>
<path fill="#C3C5C7" opacity="1.000000" stroke="none" 
	d="
M391.583435,546.130005 
	C391.173981,546.836487 390.320099,547.875610 389.450439,547.888977 
	C381.918121,548.005005 374.382721,547.955627 366.848938,547.883667 
	C366.297485,547.878418 365.751434,547.312805 365.084320,546.634155 
	C373.687744,546.169434 382.409729,546.078186 391.583435,546.130005 
z"/>
<path fill="#56883B" opacity="1.000000" stroke="none" 
	d="
M122.044495,448.609192 
	C122.013947,452.792206 121.967316,456.579926 121.860054,460.854980 
	C121.284256,459.919006 120.323677,458.493042 120.332031,457.072784 
	C120.365898,451.321075 120.697853,445.571075 121.030991,439.399017 
	C124.304649,439.679260 124.416039,441.580444 123.288628,444.131317 
	C122.716812,445.425140 122.439087,446.848877 122.044495,448.609192 
z"/>
<path fill="#C3C5C7" opacity="1.000000" stroke="none" 
	d="
M53.591686,546.208069 
	C53.787556,546.764465 53.526409,547.540649 53.276287,547.537109 
	C46.256989,547.437927 39.238811,547.259888 32.087051,546.731323 
	C39.015697,546.266724 46.077755,546.165588 53.591686,546.208069 
z"/>
<path fill="#56883B" opacity="1.000000" stroke="none" 
	d="
M418.717896,419.325623 
	C418.120178,420.012573 417.057648,420.996399 416.016083,420.974762 
	C411.046051,420.871307 406.081696,420.494843 400.970367,419.850220 
	C406.637848,419.376343 412.450317,419.267731 418.717896,419.325623 
z"/>
<path fill="#56883B" opacity="1.000000" stroke="none" 
	d="
M151.652863,419.430267 
	C149.336563,420.090790 146.583160,420.876892 143.802414,420.989746 
	C140.705521,421.115448 137.583771,420.628571 134.199432,420.072205 
	C139.685257,419.576996 145.444473,419.417938 151.652863,419.430267 
z"/>
<path fill="#56883B" opacity="1.000000" stroke="none" 
	d="
M122.775993,419.577332 
	C122.702034,421.242889 122.353943,422.730408 122.019333,424.604553 
	C121.910797,428.446289 121.788795,431.901459 121.397110,435.654633 
	C120.836678,431.131042 120.453201,426.311249 120.360580,421.485870 
	C120.347496,420.804321 121.752983,420.095520 122.775993,419.577332 
z"/>
<path fill="#BBBBBB" opacity="1.000000" stroke="none" 
	d="
M133.933777,386.205078 
	C134.292465,387.551178 134.651154,388.897278 135.011292,390.595062 
	C132.626221,391.032745 130.239700,391.118744 127.421135,391.079468 
	C126.285316,387.202362 129.001877,387.053497 132.089828,386.401733 
	C133.098557,386.155212 133.516174,386.180145 133.933777,386.205078 
z"/>
<path fill="#C3C5C7" opacity="1.000000" stroke="none" 
	d="
M71.592316,546.201782 
	C66.899895,549.434509 61.552021,548.123962 56.085995,546.717285 
	C61.017506,546.254944 66.079651,546.156921 71.592316,546.201782 
z"/>
<path fill="#B6B6B6" opacity="1.000000" stroke="none" 
	d="
M264.792175,384.666809 
	C261.288635,380.606140 262.883850,375.807465 264.148865,370.964050 
	C264.687714,375.325745 264.832794,379.776062 264.792175,384.666809 
z"/>
<path fill="#DFDFE0" opacity="1.000000" stroke="none" 
	d="
M121.509094,294.467163 
	C122.880150,295.666565 124.055405,297.270111 125.592209,298.953918 
	C124.823608,300.024048 123.693466,301.013947 122.161301,301.983398 
	C121.610611,299.599121 121.461952,297.235199 121.509094,294.467163 
z"/>
<path fill="#C3C5C7" opacity="1.000000" stroke="none" 
	d="
M358.591370,546.122070 
	C355.620911,549.394287 351.903229,548.123962 348.080017,546.646851 
	C351.358551,546.180664 354.753540,546.080750 358.591370,546.122070 
z"/>
<path fill="#56883B" opacity="1.000000" stroke="none" 
	d="
M245.689987,419.350739 
	C242.806961,419.736816 239.478928,419.963989 236.007523,419.842834 
	C238.991089,419.393616 242.118042,419.292725 245.689987,419.350739 
z"/>
<path fill="#C3C5C7" opacity="1.000000" stroke="none" 
	d="
M272.606384,546.207886 
	C270.093964,546.585693 267.144775,546.822937 264.075439,546.707153 
	C266.693390,546.258545 269.431488,546.162964 272.606384,546.207886 
z"/>
<path fill="#C3C5C7" opacity="1.000000" stroke="none" 
	d="
M16.614109,546.224976 
	C14.528980,548.374146 11.982702,550.011292 9.006697,546.686768 
	C11.362062,546.266663 13.772406,546.174011 16.614109,546.224976 
z"/>
<path fill="#BBBBBB" opacity="1.000000" stroke="none" 
	d="
M121.723358,376.441376 
	C125.274261,378.326721 124.492287,381.036133 122.284363,383.911041 
	C121.783150,381.601135 121.666046,379.228424 121.723358,376.441376 
z"/>
<path fill="#C3C5C7" opacity="1.000000" stroke="none" 
	d="
M27.613155,546.225464 
	C25.425835,546.597656 22.806498,546.829102 20.070292,546.715149 
	C22.362661,546.274719 24.771902,546.179688 27.613155,546.225464 
z"/>
<path fill="#C3C5C7" opacity="1.000000" stroke="none" 
	d="
M103.625977,546.213684 
	C102.081223,546.576355 100.118439,546.796326 98.055656,546.683655 
	C99.706421,546.257690 101.457191,546.164307 103.625977,546.213684 
z"/>
<path fill="#C3C5C7" opacity="1.000000" stroke="none" 
	d="
M216.634857,546.203247 
	C215.406570,546.561279 213.770325,546.777100 212.045334,546.667542 
	C213.380035,546.248474 214.803467,546.154724 216.634857,546.203247 
z"/>
<path fill="#C3C5C7" opacity="1.000000" stroke="none" 
	d="
M407.644135,546.142334 
	C406.726532,546.496094 405.416565,546.706543 404.034943,546.599854 
	C405.059448,546.188171 406.155609,546.093567 407.644135,546.142334 
z"/>
<path fill="#C3C5C7" opacity="1.000000" stroke="none" 
	d="
M222.647949,546.198547 
	C221.731461,546.547852 220.420685,546.756409 219.033173,546.654114 
	C220.055511,546.248169 221.154587,546.153015 222.647949,546.198547 
z"/>
<path fill="#B6B6B6" opacity="1.000000" stroke="none" 
	d="
M264.557281,389.812164 
	C264.192291,389.056610 264.081451,388.061249 264.261292,386.974274 
	C264.638458,387.779205 264.724945,388.675812 264.557281,389.812164 
z"/>
<path fill="#C3C5C7" opacity="1.000000" stroke="none" 
	d="
M417.667480,546.160461 
	C417.049927,546.503479 416.061340,546.701904 415.017212,546.598450 
	C415.739899,546.203003 416.518158,546.109375 417.667480,546.160461 
z"/>
<path fill="#C3C5C7" opacity="1.000000" stroke="none" 
	d="
M200.669861,546.208984 
	C200.053848,546.548645 199.064346,546.747314 198.015045,546.649780 
	C198.735626,546.258362 199.516006,546.163147 200.669861,546.208984 
z"/>
<path fill="#C3C5C7" opacity="1.000000" stroke="none" 
	d="
M93.704178,546.213196 
	C93.372620,546.525330 92.702309,546.699646 91.994034,546.611694 
	C92.425850,546.258057 92.895638,546.166748 93.704178,546.213196 
z"/>
<path fill="#6C8E3F" opacity="1.000000" stroke="none" 
	d="
M437.647400,420.833801 
	C437.025879,420.758331 436.512939,420.373596 435.923767,419.752441 
	C436.483704,419.852173 437.119873,420.188354 437.647400,420.833801 
z"/>
<path fill="#B6B6B6" opacity="1.000000" stroke="none" 
	d="
M121.867096,390.261902 
	C122.535118,390.156952 123.105667,390.302216 123.834290,390.708435 
	C123.251450,390.816925 122.510544,390.664520 121.867096,390.261902 
z"/>
<path fill="#C3C5C7" opacity="1.000000" stroke="none" 
	d="
M192.704651,546.221497 
	C192.373230,546.532959 191.702698,546.706970 190.993668,546.619263 
	C191.425293,546.266357 191.895432,546.175171 192.704651,546.221497 
z"/>
<path fill="#EFF0EF" opacity="1.000000" stroke="none" 
	d="
M168.878952,77.651016 
	C169.046875,78.008919 168.989166,78.198357 168.866486,78.677414 
	C168.596573,78.702255 168.391617,78.437462 168.153870,77.919579 
	C168.298492,77.605171 168.475922,77.543861 168.878952,77.651016 
z"/>
<path fill="#F0F1F1" opacity="1.000000" stroke="none" 
	d="
M127.000305,276.000000 
	C126.997063,275.552582 126.993828,275.105164 126.982582,274.321960 
	C126.983269,263.297791 126.991959,252.609421 127.000626,241.460831 
	C130.577881,242.706848 134.179886,244.364395 137.713135,246.157379 
	C138.488907,246.551071 139.674271,247.582474 139.561447,248.055573 
	C138.588608,252.134842 141.257278,252.070160 143.861481,251.983063 
	C146.830307,251.883759 148.008728,253.221313 148.060272,256.162048 
	C148.092484,257.999695 148.757004,259.826263 149.179245,261.857147 
	C157.891983,257.144043 165.860580,262.055939 166.026962,271.334747 
	C166.246582,283.582703 166.662125,295.827179 166.639969,308.498657 
	C161.344101,305.391571 154.181808,304.169617 153.704178,298.205505 
	C146.756180,294.200226 140.806198,290.893036 135.030090,287.305847 
	C134.181396,286.778809 134.349182,284.813721 133.716629,283.701721 
	C132.007935,280.697968 131.616486,276.480804 127.000305,276.000000 
z"/>
<path fill="#E9EAEA" opacity="1.000000" stroke="none" 
	d="
M126.999847,276.468628 
	C131.616486,276.480804 132.007935,280.697968 133.716629,283.701721 
	C134.349182,284.813721 134.181396,286.778809 135.030090,287.305847 
	C140.806198,290.893036 146.756180,294.200226 153.704178,298.205505 
	C154.181808,304.169617 161.344101,305.391571 166.635101,308.968048 
	C167.332748,311.920380 167.681793,314.828888 168.392578,317.823242 
	C168.479141,319.035431 168.203995,320.161713 167.889709,321.638519 
	C164.192719,320.642670 161.336182,321.487457 158.765182,324.572449 
	C157.157867,326.501160 150.311661,325.467957 149.665756,323.151489 
	C149.351593,322.024719 151.454269,320.224060 152.761322,318.285950 
	C152.673248,318.225159 151.781082,317.249878 150.691956,316.914795 
	C141.973526,314.232635 134.844528,309.354584 129.400284,302.008881 
	C129.050201,301.536530 128.272980,301.380737 127.348694,301.039429 
	C126.999962,300.553345 126.996986,300.105499 126.987259,299.321472 
	C126.986801,291.635986 126.993095,284.286621 126.999847,276.468628 
z"/>
<path fill="#8CB346" opacity="1.000000" stroke="none" 
	d="
M294.983459,424.402954 
	C295.730133,424.010895 296.483490,424.003937 298.077454,423.998718 
	C302.944183,424.000702 306.970276,424.000977 310.996338,424.001221 
	C313.694794,424.006042 316.393219,424.010895 319.543823,424.420593 
	C320.610199,427.194366 321.224426,429.563232 321.911194,432.211792 
	C324.492310,430.840820 326.110077,429.227478 327.604370,429.334686 
	C331.491455,429.613434 335.324341,430.647675 339.954865,431.528015 
	C340.999847,434.969604 341.713196,439.848969 347.006622,442.081268 
	C347.770020,442.403168 347.434509,446.270416 346.954926,448.346252 
	C346.434692,450.598053 345.151184,452.673523 344.200531,454.825867 
	C344.600464,455.141693 345.000366,455.457489 345.400299,455.773315 
	C343.932709,455.848877 342.465149,455.924438 340.997559,456.000000 
	C323.644135,455.999939 306.290741,455.999878 288.468658,455.999298 
	C287.879883,449.152191 287.668701,442.568909 292.331238,436.440308 
	C294.527832,433.553101 294.183197,428.732544 294.983459,424.402954 
z"/>
<path fill="#75A946" opacity="1.000000" stroke="none" 
	d="
M227.456482,455.999359 
	C218.977295,455.999176 210.957031,455.999573 202.408966,455.652588 
	C201.315506,454.747253 200.848969,453.941193 200.168945,453.669586 
	C193.090347,450.842102 188.026581,446.555328 184.658981,439.139191 
	C182.249146,433.832275 183.550720,429.021332 182.979462,424.018311 
	C185.352921,424.011749 187.726395,424.005188 190.543518,423.998718 
	C199.359894,424.331482 207.732605,424.664215 216.691223,425.277039 
	C218.519714,425.370605 219.762299,425.184082 221.004868,424.997559 
	C223.701965,424.997955 226.399063,424.998352 229.545319,424.998169 
	C230.472900,426.222961 230.598846,428.059143 231.488205,428.572327 
	C236.408722,431.411652 235.610764,436.186737 234.756012,440.082886 
	C233.465515,445.965149 234.002792,450.819550 238.504303,455.999939 
	C234.974670,455.999939 231.445038,455.999939 227.456482,455.999359 
z"/>
<path fill="#93B749" opacity="1.000000" stroke="none" 
	d="
M280.331940,424.993622 
	C280.072937,422.899658 280.286774,421.038269 282.954102,423.667908 
	C282.235138,424.336456 281.452576,424.664276 280.331940,424.993622 
z"/>
<path fill="#8CB346" opacity="1.000000" stroke="none" 
	d="
M273.142456,425.218323 
	C273.563263,424.852386 274.135101,424.706238 274.857788,424.780029 
	C274.436920,425.146027 273.865204,425.292053 273.142456,425.218323 
z"/>
<path fill="#F4F4F4" opacity="1.000000" stroke="none" 
	d="
M251.790405,347.453186 
	C255.401428,347.115845 258.851593,347.115845 263.147614,347.115845 
	C263.147614,352.647522 263.147614,357.864838 263.134460,363.552612 
	C261.507355,364.306549 259.683472,364.206024 258.321655,364.950592 
	C255.143387,366.688171 252.532166,365.591766 250.921722,363.154449 
	C249.931183,361.655273 249.852814,358.996704 250.400299,357.168823 
	C251.216827,354.442780 250.438416,353.210999 247.933716,353.077148 
	C244.018539,352.867981 240.083405,353.064117 236.162109,352.930603 
	C229.648560,352.708771 223.139282,352.361603 216.628220,352.067230 
	C216.604477,351.536163 216.580734,351.005066 216.556992,350.473999 
	C217.828125,350.315948 219.098679,350.026825 220.370499,350.020996 
	C229.120087,349.980804 237.872772,350.114655 246.617264,349.899994 
	C248.304291,349.858582 249.959610,348.526947 251.790405,347.453186 
z"/>
<path fill="#DADADA" opacity="1.000000" stroke="none" 
	d="
M148.464996,387.109680 
	C146.822189,386.417572 145.612747,385.225433 144.299393,385.097168 
	C141.202057,384.794617 138.055206,384.998962 134.131546,384.999695 
	C132.891220,385.001984 132.447754,385.002808 132.004272,385.003662 
	C126.063477,384.840118 125.314285,383.847748 126.357483,378.265381 
	C126.809135,375.848541 126.796349,373.344910 126.988174,370.430969 
	C126.987068,360.966583 126.992310,351.951935 126.997253,342.468658 
	C129.282791,343.223633 131.622971,344.357727 133.836243,345.700989 
	C135.430939,346.668823 136.887726,347.876343 138.350235,349.046661 
	C140.467056,350.740509 142.559265,352.467468 144.611618,354.238647 
	C145.823776,355.284821 146.997955,356.388763 148.085266,357.562988 
	C150.394394,360.056732 153.943527,362.298126 154.644577,365.206848 
	C156.337112,372.229492 161.786514,374.262848 167.003250,377.285187 
	C169.753387,378.878510 171.684692,381.885193 173.535583,384.623230 
	C170.054184,384.993927 167.022873,384.995148 163.991577,384.996368 
	C162.927643,384.996643 161.863708,384.996887 159.966614,384.998596 
	C156.741684,385.686340 154.349915,386.372711 151.958145,387.059052 
	C150.922470,387.070404 149.886810,387.081757 148.464996,387.109680 
z"/>
<path fill="#E6E6E6" opacity="1.000000" stroke="none" 
	d="
M164.288574,385.285126 
	C167.022873,384.995148 170.054184,384.993927 173.538773,384.990265 
	C177.084579,384.987793 180.177109,384.987793 183.269623,384.987793 
	C183.263702,385.634918 183.257782,386.282043 183.251862,386.929169 
	C177.029770,386.477417 170.807678,386.025665 164.288574,385.285126 
z"/>
<path fill="#E6E6E6" opacity="1.000000" stroke="none" 
	d="
M152.335434,387.062073 
	C154.349915,386.372711 156.741684,385.686340 159.567642,384.999390 
	C159.993591,385.203949 159.985352,385.409149 159.949966,385.923828 
	C159.240311,386.199615 158.557816,386.165894 157.202026,386.105713 
	C156.009766,386.413757 155.490768,386.748230 154.971771,387.082703 
	C154.218750,387.076843 153.465744,387.070984 152.335434,387.062073 
z"/>
<path fill="#6BA446" opacity="1.000000" stroke="none" 
	d="
M182.539612,424.013977 
	C183.550720,429.021332 182.249146,433.832275 184.658981,439.139191 
	C188.026581,446.555328 193.090347,450.842102 200.168945,453.669586 
	C200.848969,453.941193 201.315506,454.747253 201.940277,455.652588 
	C196.644974,456.000793 191.290573,456.001587 185.468689,456.002411 
	C180.975800,456.001404 176.950378,456.000336 172.461563,455.998413 
	C166.915894,445.595795 164.365112,433.780212 155.042816,425.362213 
	C159.074600,424.782562 163.152390,424.561462 167.985260,424.172607 
	C169.494019,424.010712 170.247665,424.016510 171.001328,424.022339 
	C174.700806,424.018097 178.400299,424.013855 182.539612,424.013977 
z"/>
<path fill="#93B749" opacity="1.000000" stroke="none" 
	d="
M341.081238,456.375000 
	C342.465149,455.924438 343.932709,455.848877 345.400299,455.773315 
	C345.000366,455.457489 344.600464,455.141693 344.200531,454.825867 
	C345.151184,452.673523 346.434692,450.598053 346.954926,448.346252 
	C347.434509,446.270416 347.770020,442.403168 347.006622,442.081268 
	C341.713196,439.848969 340.999847,434.969604 339.954865,431.528015 
	C335.324341,430.647675 331.491455,429.613434 327.604370,429.334686 
	C326.110077,429.227478 324.492310,430.840820 321.911194,432.211792 
	C321.224426,429.563232 320.610199,427.194366 319.993317,424.425568 
	C337.679962,424.020081 355.369202,424.014557 373.583191,424.416656 
	C374.590881,427.708679 375.073822,430.593079 375.477142,433.001831 
	C380.628906,433.001831 385.519226,432.919189 390.405609,433.021912 
	C397.127289,433.163177 398.374817,435.069641 397.164429,441.607300 
	C396.740295,443.898071 397.273041,446.551208 398.025116,448.821411 
	C398.747894,451.003113 400.319855,452.903442 402.154663,456.001221 
	C405.807678,456.001221 410.907043,456.001221 416.045410,456.295532 
	C416.487976,456.902985 416.891510,457.216095 417.295044,457.529205 
	C417.527954,457.019867 417.760834,456.510529 418.394714,456.000732 
	C419.865021,456.000183 420.934357,456.000092 422.053955,456.331482 
	C423.074677,458.086945 424.045105,459.510864 425.015564,460.934814 
	C402.989380,460.948425 380.963196,460.962006 358.468384,460.955963 
	C356.397949,460.290863 354.847198,459.417725 353.184296,459.045471 
	C349.205902,458.154846 345.174744,457.500031 341.081238,456.375000 
M392.609528,456.006195 
	C391.600372,456.222809 390.591187,456.439453 389.582031,456.656067 
	C389.651703,456.927673 389.721375,457.199280 389.791046,457.470886 
	C391.969604,457.470886 394.148163,457.470886 396.326721,457.470886 
	C396.341949,457.162750 396.357208,456.854584 396.372437,456.546448 
	C395.378723,456.366302 394.384979,456.186157 392.609528,456.006195 
z"/>
<path fill="#98BB46" opacity="1.000000" stroke="none" 
	d="
M422.003662,456.000000 
	C420.934357,456.000092 419.865021,456.000183 418.063568,456.001526 
	C416.889740,456.002228 416.448059,456.001709 416.006378,456.001221 
	C410.907043,456.001221 405.807678,456.001221 402.154663,456.001221 
	C400.319855,452.903442 398.747894,451.003113 398.025116,448.821411 
	C397.273041,446.551208 396.740295,443.898071 397.164429,441.607300 
	C398.374817,435.069641 397.127289,433.163177 390.405609,433.021912 
	C385.519226,432.919189 380.628906,433.001831 375.477142,433.001831 
	C375.073822,430.593079 374.590881,427.708679 374.051575,424.419830 
	C380.049500,424.343292 386.104492,424.942596 392.157928,424.926910 
	C398.933441,424.909363 405.706085,424.117828 412.482605,424.074738 
	C417.425995,424.043274 422.441772,424.318329 427.278473,425.232971 
	C428.758789,425.512939 430.496399,428.239746 430.800598,430.065247 
	C431.293304,433.022400 432.506134,434.189514 435.745972,434.062378 
	C436.132660,439.081604 436.097839,444.067871 435.677368,449.519470 
	C429.710815,447.869629 430.342773,452.597107 429.363342,456.000000 
	C426.854218,456.000000 424.428925,456.000000 422.003662,456.000000 
z"/>
<path fill="#93B749" opacity="1.000000" stroke="none" 
	d="
M310.997681,423.667877 
	C306.970276,424.000977 302.944183,424.000702 298.453766,423.998993 
	C299.576691,423.331421 301.115173,422.309937 302.762909,422.083557 
	C305.158966,421.754333 307.633728,421.998260 310.537476,421.999512 
	C310.999695,422.445648 310.999390,422.890106 310.997681,423.667877 
z"/>
<path fill="#82AC54" opacity="1.000000" stroke="none" 
	d="
M170.973907,423.705322 
	C170.247665,424.016510 169.494019,424.010712 168.363129,424.005493 
	C168.392929,423.228455 168.799957,422.450775 169.206970,421.673096 
	C169.786804,422.244843 170.366638,422.816620 170.973907,423.705322 
z"/>
<path fill="#81AE46" opacity="1.000000" stroke="none" 
	d="
M220.788452,424.743408 
	C219.762299,425.184082 218.519714,425.370605 217.136139,425.276398 
	C218.187424,424.826843 219.379745,424.658051 220.788452,424.743408 
z"/>
<path fill="#9DBE54" opacity="1.000000" stroke="none" 
	d="
M422.053955,456.331482 
	C424.428925,456.000000 426.854218,456.000000 429.363342,456.000000 
	C430.342773,452.597107 429.710815,447.869629 435.667725,449.985291 
	C436.049835,450.314819 436.058899,450.643799 436.061646,450.972870 
	C436.146606,461.089600 436.146515,461.089600 425.475769,460.958191 
	C424.045105,459.510864 423.074677,458.086945 422.053955,456.331482 
z"/>
<path fill="#E6E6E6" opacity="1.000000" stroke="none" 
	d="
M132.011536,385.297241 
	C132.447754,385.002808 132.891220,385.001984 133.667358,385.000580 
	C133.993301,385.200287 133.986618,385.400604 133.956848,385.902985 
	C133.516174,386.180145 133.098557,386.155212 132.368042,386.153625 
	C132.043030,385.981567 132.030914,385.786194 132.011536,385.297241 
z"/>
<path fill="#DFDFE0" opacity="1.000000" stroke="none" 
	d="
M155.156265,387.300354 
	C155.490768,386.748230 156.009766,386.413757 156.859116,386.098999 
	C156.573227,386.585114 155.956985,387.051544 155.156265,387.300354 
z"/>
<path fill="#9DBE54" opacity="1.000000" stroke="none" 
	d="
M393.000366,456.006104 
	C394.384979,456.186157 395.378723,456.366302 396.372437,456.546448 
	C396.357208,456.854584 396.341949,457.162750 396.326721,457.470886 
	C394.148163,457.470886 391.969604,457.470886 389.791046,457.470886 
	C389.721375,457.199280 389.651703,456.927673 389.582031,456.656067 
	C390.591187,456.439453 391.600372,456.222809 393.000366,456.006104 
z"/>
<path fill="#9DBE54" opacity="1.000000" stroke="none" 
	d="
M416.045410,456.295532 
	C416.448059,456.001709 416.889740,456.002228 417.662598,456.001984 
	C417.760834,456.510529 417.527954,457.019867 417.295044,457.529205 
	C416.891510,457.216095 416.487976,456.902985 416.045410,456.295532 
z"/>
</svg>